<?xml version="1.0" encoding="utf-8"?>
<!-- Generator: Adobe Illustrator 22.1.0, SVG Export Plug-In . SVG Version: 6.00 Build 0)  -->
<svg version="1.1" id="ART_copy" xmlns="http://www.w3.org/2000/svg" xmlns:xlink="http://www.w3.org/1999/xlink" x="0px" y="0px"
	 viewBox="0 0 400 383.7" style="enable-background:new 0 0 400 383.7;" xml:space="preserve">
<style type="text/css">
	.B_x002F_W_x0020_Water_x0020_25k{fill:#BFBFBF;}
	.st0{stroke:#000000;stroke-width:2;stroke-miterlimit:10;}
</style>
<path id="no" class="st0" d="M98.9,166.2c19.8,0,35.9,16.1,35.9,35.9s-16.1,35.9-35.9,35.9S63,222,63,202.1S79.1,166.2,98.9,166.2
	L98.9,166.2L98.9,166.2z"/>
<path id="personal" class="st0" d="M39.9,114.2c19.8,0,35.9,16.1,35.9,35.9s-16.1,35.9-35.9,35.9S4,170,4,150.1S20,114.2,39.9,114.2
	L39.9,114.2L39.9,114.2z"/>
<path id="pollution" class="st0" d="M144.8,229.2c19.8,0,35.9,16.1,35.9,35.9c0,19.8-16.1,35.9-35.9,35.9s-35.9-16.1-35.9-35.9
	C108.9,245.3,125,229.2,144.8,229.2L144.8,229.2L144.8,229.2z"/>
<path id="recovery" class="st0" d="M166.3,125.2c19.8,0,35.9,16.1,35.9,35.9s-16.1,35.9-35.9,35.9s-35.9-16.1-35.9-35.9
	S146.5,125.2,166.3,125.2L166.3,125.2L166.3,125.2z"/>
<path id="fund" class="st0" d="M346.5,195.1c28.1,0,50.8,22.7,50.8,50.8s-22.7,50.8-50.8,50.8c-28.1,0-50.8-22.7-50.8-50.8
	S318.4,195.1,346.5,195.1L346.5,195.1L346.5,195.1z"/>
<path id="fishing" class="st0" d="M235.3,44.4c28.1,0,50.8,22.7,50.8,50.8S263.4,146,235.3,146s-50.8-22.7-50.8-50.8
	S207.2,44.4,235.3,44.4L235.3,44.4L235.3,44.4z"/>
<path id="habitat" class="st0" d="M232.1,179.4c28.1,0,50.8,22.7,50.8,50.8S260.1,281,232.1,281s-50.8-22.7-50.8-50.8
	S204,179.4,232.1,179.4L232.1,179.4L232.1,179.4z"/>
<path id="noise" class="st0" d="M343.6,31.3c28.1,0,50.8,22.7,50.8,50.8s-22.7,50.8-50.8,50.8c-28.1,0-50.8-22.7-50.8-50.8
	S315.6,31.3,343.6,31.3L343.6,31.3L343.6,31.3z"/>
<path id="landuse" class="st0" d="M276.1,278c28.1,0,50.8,22.7,50.8,50.8c0,28.1-22.7,50.8-50.8,50.8c-28.1,0-50.8-22.7-50.8-50.8
	C225.3,300.7,248.1,278,276.1,278L276.1,278L276.1,278z"/>
<path id="tax" class="st0" d="M298.9,127.9c19.8,0,35.9,16.1,35.9,35.9s-16.1,35.9-35.9,35.9c-19.8,0-35.9-16.1-35.9-35.9
	S279,127.9,298.9,127.9L298.9,127.9L298.9,127.9z"/>
</svg>
