<?xml version="1.0" encoding="utf-8"?>
<!-- Generator: Adobe Illustrator 22.0.0, SVG Export Plug-In . SVG Version: 6.00 Build 0)  -->
<svg version="1.1" id="ART_copy" xmlns="http://www.w3.org/2000/svg" xmlns:xlink="http://www.w3.org/1999/xlink" x="0px" y="0px"
	 viewBox="0 0 400 325.5" style="enable-background:new 0 0 400 325.5;" xml:space="preserve">
<style type="text/css">
	.B_x002F_W_x0020_Water_x0020_25k{fill:#BFBFBF;}
	.st0{stroke:#000000;stroke-width:2;stroke-miterlimit:10;}
</style>
<path id="no" class="st0" d="M98.9,140.7c19.8,0,35.9,16.1,35.9,35.9s-16.1,35.9-35.9,35.9S63,196.5,63,176.6S79.1,140.7,98.9,140.7
	L98.9,140.7L98.9,140.7z"/>
<path id="personal" class="st0" d="M39.9,88.7c19.8,0,35.9,16.1,35.9,35.9s-16.1,35.9-35.9,35.9S4,144.5,4,124.6S20,88.7,39.9,88.7
	L39.9,88.7L39.9,88.7z"/>
<path id="pollution" class="st0" d="M144.8,203.7c19.8,0,35.9,16.1,35.9,35.9s-16.1,35.9-35.9,35.9s-35.9-16.1-35.9-35.9
	S125,203.7,144.8,203.7L144.8,203.7L144.8,203.7z"/>
<path id="recovery" class="st0" d="M166.3,99.7c19.8,0,35.9,16.1,35.9,35.9s-16.1,35.9-35.9,35.9s-35.9-16.1-35.9-35.9
	S146.5,99.7,166.3,99.7L166.3,99.7L166.3,99.7z"/>
<path id="fund" class="st0" d="M321.2,220.2c28.1,0,50.8,22.7,50.8,50.8s-22.7,50.8-50.8,50.8c-28.1,0-50.8-22.7-50.8-50.8
	S293.1,220.2,321.2,220.2L321.2,220.2L321.2,220.2z"/>
<path id="fishing" class="st0" d="M235.3,18.9c28.1,0,50.8,22.7,50.8,50.8s-22.7,50.8-50.8,50.8s-50.8-22.7-50.8-50.8
	S207.2,18.9,235.3,18.9L235.3,18.9L235.3,18.9z"/>
<path id="landuse" class="st0" d="M298.8,104.5c19.8,0,35.9,16.1,35.9,35.9s-16.1,35.9-35.9,35.9s-35.9-16.1-35.9-35.9
	S278.9,104.5,298.8,104.5L298.8,104.5L298.8,104.5z"/>
<path id="habitat" class="st0" d="M232.1,156.9c28.1,0,50.8,22.7,50.8,50.8s-22.7,50.8-50.8,50.8s-50.8-22.7-50.8-50.8
	S204,156.9,232.1,156.9L232.1,156.9L232.1,156.9z"/>
<path id="noise" class="st0" d="M343.6,5.8c28.1,0,50.8,22.7,50.8,50.8s-22.7,50.8-50.8,50.8c-28.1,0-50.8-22.7-50.8-50.8
	S315.6,5.8,343.6,5.8L343.6,5.8L343.6,5.8z"/>
<path id="tax" class="st0" d="M362.1,150.4c19.8,0,35.9,16.1,35.9,35.9s-16.1,35.9-35.9,35.9s-35.9-16.1-35.9-35.9
	S342.3,150.4,362.1,150.4L362.1,150.4L362.1,150.4z"/>
</svg>
