<?xml version="1.0" encoding="utf-8"?>
<!-- Generator: Adobe Illustrator 22.0.0, SVG Export Plug-In . SVG Version: 6.00 Build 0)  -->
<svg id="svg--desktop" version="1.1" xmlns="http://www.w3.org/2000/svg" xmlns:xlink="http://www.w3.org/1999/xlink" x="0px" y="0px" width="100%" viewBox="0 0 800 379.7" preserveAspectRatio="xMidYMin slice" overflow="visible" style="enable-background:new 0 0 800 379.7;" xml:space="preserve">
<style type="text/css">
	.st0{stroke:#000000;stroke-width:2;stroke-miterlimit:10;}
</style>
<path class="st0 no" d="M171.9,106.6c27.8,0,50.3,22.5,50.3,50.3s-22.5,50.3-50.3,50.3s-50.3-22.5-50.3-50.3
	S144.1,106.6,171.9,106.6L171.9,106.6L171.9,106.6z"/>
<path class="st0 personal" d="M59.2,82.7c27.8,0,50.3,22.5,50.3,50.3S87,183.3,59.2,183.3S8.9,160.7,8.9,133
	S31.4,82.7,59.2,82.7L59.2,82.7L59.2,82.7z"/>
<path class="st0 pollution" d="M276,145.6c27.8,0,50.3,22.5,50.3,50.3s-22.5,50.3-50.3,50.3s-50.3-22.5-50.3-50.3
	S248.2,145.6,276,145.6L276,145.6L276,145.6z"/>
<path class="st0 recovery" d="M347,61c27.8,0,50.3,22.5,50.3,50.3s-22.5,50.3-50.3,50.3s-50.3-22.5-50.3-50.3S319.2,61,347,61
	L347,61L347,61z"/>
<path class="st0 fund" d="M725.2,122.7c39.3,0,71.1,31.8,71.1,71.1s-31.8,71.1-71.1,71.1S654,233.1,654,193.8
	S685.9,122.7,725.2,122.7L725.2,122.7L725.2,122.7z"/>
<path class="st0 landuse" d="M620.6,232.7c39.3,0,71.1,31.8,71.1,71.1S659.9,375,620.6,375c-39.3,0-71.1-31.8-71.1-71.1
	S581.4,232.7,620.6,232.7L620.6,232.7L620.6,232.7z"/>
<path class="st0 fishing" d="M476.1,19.3c39.3,0,71.1,31.8,71.1,71.1s-31.8,71.1-71.1,71.1S405,129.7,405,90.4
	S436.8,19.3,476.1,19.3L476.1,19.3L476.1,19.3z"/>
<path class="st0 habitat" d="M404,159.6c39.3,0,71.1,31.8,71.1,71.1s-31.8,71.1-71.1,71.1s-71.1-31.8-71.1-71.1
	S364.7,159.6,404,159.6L404,159.6L404,159.6z"/>
<path class="st0 noise" d="M627.6,5.6c39.3,0,71.1,31.8,71.1,71.1s-31.8,71.1-71.1,71.1s-71.1-31.8-71.1-71.1
	S588.4,5.6,627.6,5.6L627.6,5.6L627.6,5.6z"/>
<path class="st0 tax" d="M534,156.9c27.8,0,50.3,22.5,50.3,50.3s-22.5,50.3-50.3,50.3s-50.3-22.5-50.3-50.3
	S506.2,156.9,534,156.9L534,156.9L534,156.9z"/>
</svg>
