<?xml version="1.0" encoding="utf-8"?>
<!-- Generator: Adobe Illustrator 22.1.0, SVG Export Plug-In . SVG Version: 6.00 Build 0)  -->
<svg version="1.1" id="ART_copy" xmlns="http://www.w3.org/2000/svg" xmlns:xlink="http://www.w3.org/1999/xlink" x="0px" y="0px"
	 viewBox="0 0 400 383.7" style="enable-background:new 0 0 400 383.7;" xml:space="preserve">
<style type="text/css">
	.B_x002F_W_x0020_Water_x0020_25k{fill:#BFBFBF;}
	.st0{stroke:#000000;stroke-width:2;stroke-miterlimit:10;}
</style>
<path id="no" class="st0" d="M94.9,166.2c19.8,0,35.9,16.1,35.9,35.9s-16.1,35.9-35.9,35.9S59,222,59,202.1S75.1,166.2,94.9,166.2
	L94.9,166.2L94.9,166.2z"/>
<path id="personal" class="st0" d="M51.9,98.2c19.8,0,35.9,16.1,35.9,35.9s-16.1,35.9-35.9,35.9S16,154,16,134.1S32,98.2,51.9,98.2
	L51.9,98.2L51.9,98.2z"/>
<path id="pollution" class="st0" d="M140.8,229.2c19.8,0,35.9,16.1,35.9,35.9c0,19.8-16.1,35.9-35.9,35.9s-35.9-16.1-35.9-35.9
	C104.9,245.3,121,229.2,140.8,229.2L140.8,229.2L140.8,229.2z"/>
<path id="recovery" class="st0" d="M162.3,125.2c19.8,0,35.9,16.1,35.9,35.9s-16.1,35.9-35.9,35.9s-35.9-16.1-35.9-35.9
	S142.5,125.2,162.3,125.2L162.3,125.2L162.3,125.2z"/>
<path id="fund" class="st0" d="M342.5,195.1c28.1,0,50.8,22.7,50.8,50.8s-22.7,50.8-50.8,50.8c-28.1,0-50.8-22.7-50.8-50.8
	S314.4,195.1,342.5,195.1L342.5,195.1L342.5,195.1z"/>
<path id="fishing" class="st0" d="M231.3,44.4c28.1,0,50.8,22.7,50.8,50.8S259.4,146,231.3,146s-50.8-22.7-50.8-50.8
	S203.2,44.4,231.3,44.4L231.3,44.4L231.3,44.4z"/>
<path id="habitat" class="st0" d="M228.1,179.4c28.1,0,50.8,22.7,50.8,50.8S256.1,281,228.1,281s-50.8-22.7-50.8-50.8
	S200,179.4,228.1,179.4L228.1,179.4L228.1,179.4z"/>
<path id="noise" class="st0" d="M339.6,31.3c28.1,0,50.8,22.7,50.8,50.8s-22.7,50.8-50.8,50.8c-28.1,0-50.8-22.7-50.8-50.8
	S311.6,31.3,339.6,31.3L339.6,31.3L339.6,31.3z"/>
<path id="landuse" class="st0" d="M272.1,278c28.1,0,50.8,22.7,50.8,50.8c0,28.1-22.7,50.8-50.8,50.8c-28.1,0-50.8-22.7-50.8-50.8
	C221.3,300.7,244.1,278,272.1,278L272.1,278L272.1,278z"/>
<path id="tax" class="st0" d="M294.9,127.9c19.8,0,35.9,16.1,35.9,35.9s-16.1,35.9-35.9,35.9c-19.8,0-35.9-16.1-35.9-35.9
	S275,127.9,294.9,127.9L294.9,127.9L294.9,127.9z"/>
</svg>
